#Piece1.obj
#miércoles. 4 de diciembre de 2019
#10:16:03 a. m.
#-------

g Piece1
#Piece1
#-------
v 0 0 0
v 11 1.212988E-05 0
v 12 2.000013 0
v 11 3.000012 0
v 10.99999 5.000012 0
v 9.999993 6.000011 0
v 5.999994 5.000007 0
v 2.999993 6.000003 0
v -5.513581E-06 5 0
v -1.000003 2.999999 0

vn 0 0 -1
vn 0 0 -0.9999999
vn 0 0 -1
vn 0 0 -1
vn 0 0 -1
vn 0 0 -1
vn 0 0 -0.9999999
vn 0 0 -1
vn 0 0 -1
vn 0 0 -1


usemtl Standard
usemap Standard
f 7/7/7 6/6/6 2/2/2
f 2/2/2 9/9/9 7/7/7
f 6/6/6 4/4/4 2/2/2
f 2/2/2 10/10/10 9/9/9
f 9/9/9 8/8/8 7/7/7
f 6/6/6 5/5/5 4/4/4
f 4/4/4 3/3/3 2/2/2
f 2/2/2 1/1/1 10/10/10
