#Piece1.obj
#miércoles. 4 de diciembre de 2019
#10:18:01 a. m.
#-------

g Piece1
#Piece1
#-------
v 0 0 0
v 3 6.081038E-07 0
v 3 -0.9999994 0
v 5 1.013506E-06 0
v 8 1.62161E-06 0
v 11 -0.9999978 0
v 12 4.000002 0
v 11 8.000002 0
v 6.999999 7.000001 0
v -1.418909E-06 7 0

vn 0 0 -1
vn 0 0 -1
vn 0 0 -1
vn 0 0 -1
vn 0 0 -1
vn 0 0 -1
vn 0 0 -1
vn 0 0 -1
vn 0 0 -1
vn 0 0 -1


usemtl Standard
usemap Standard
f 7/7/7 4/4/4 2/2/2
f 2/2/2 9/9/9 7/7/7
f 7/7/7 5/5/5 4/4/4
f 2/2/2 10/10/10 9/9/9
f 9/9/9 8/8/8 7/7/7
f 7/7/7 6/6/6 5/5/5
f 4/4/4 3/3/3 2/2/2
f 2/2/2 1/1/1 10/10/10
